<svg preserveAspectRatio="none" overflow="visible" style="display: block;" width="193.889" height="234.404" viewBox="0 0 193.889 234.404" fill="none" xmlns="http://www.w3.org/2000/svg">
<path id="Vector" d="M32.76 233.358H0L0 32.4228C0 25.4454 1.34894 19.5315 4.04652 14.6811C6.7441 9.8306 10.4534 6.17331 15.2001 3.70917C19.9209 1.2191 25.1085 0 30.7371 0C37.7145 0 43.6283 1.34879 48.4788 4.04637C53.3292 6.74395 57.3237 11.1275 60.4623 17.223L155.708 195.237C156.382 196.82 156.901 197.935 157.238 198.609C157.575 199.284 158.301 199.621 159.443 199.621C160.117 199.621 160.558 199.413 160.791 198.947C160.999 198.506 161.129 197.831 161.129 196.923V1.04637H193.889V202.318C193.889 209.062 192.488 214.821 189.661 219.541C186.833 224.262 183.124 227.945 178.507 230.513C173.89 233.107 168.988 234.404 163.8 234.404C157.497 234.404 151.687 233.003 146.396 230.176C141.104 227.375 136.773 222.913 133.401 216.844L38.4926 38.4924C38.0517 37.1436 37.6364 36.132 37.2992 35.4576C36.962 34.7832 36.3396 34.446 35.4318 34.446C34.5239 34.446 33.8495 34.7832 33.4085 35.4576C32.9676 36.132 32.7341 37.1436 32.7341 38.4924V230.358L32.76 233.358Z" fill="#0C0C0C"/>
</svg>
